<svg height="800" width="800" version="1.1" id="Layer_1" xmlns="http://www.w3.org/2000/svg" viewBox="0 0 502.613 502.613" xml:space="preserve"><path style="fill:#ff7474" d="m280.28 138.946-5.973 128c-9.387-5.973-19.627-8.533-31.573-8.533-11.947 0-22.187 3.413-31.573 8.533L207.746 139.8v-.853h72.534zm141.653 0L387.8 463.213c-2.56 19.627-15.36 34.133-34.133 34.133h-29.013l34.133-358.4h63.146zm-293.547.854 32.427 357.547H131.8c-18.773 0-31.573-14.507-34.133-34.133L63.533 138.946H128.386v.854zm86.187 231.253c8.533 4.267 17.92 6.827 28.16 6.827s19.627-2.56 28.16-6.827l-5.12 126.293h-47.787l-3.413-126.293z" transform="translate(9 1)"/><path style="fill:#ecf4f7" d="M270.893 371.053c18.773-10.24 31.573-30.72 31.573-52.907 0-21.333-11.093-40.107-28.16-51.2L280.28 139.8v-.853h78.507l-34.133 358.4h-58.027l4.266-126.294zm-56.32 0 4.267 126.293h-58.027L128.387 139.8v-.853h79.36v.853l3.413 127.147c-17.067 10.24-28.16 29.013-28.16 51.2 0 23.039 12.8 42.666 31.573 52.906z" transform="translate(9 1)"/><path style="fill:#f2edda" d="M242.733 258.413c33.28 0 59.733 26.453 59.733 59.733s-26.453 59.733-59.733 59.733S183 351.426 183 318.146s26.453-59.733 59.733-59.733M131.8 138.946H86.573v-.853c-22.187-9.387-23.04-33.28-23.04-33.28 0-14.507 11.093-25.6 25.6-25.6 3.413 0 5.973.853 8.533 1.707v-1.707c0-14.507 11.093-25.6 25.6-25.6 3.413 0 6.827.853 10.24 1.707-.853-3.413-1.707-6.827-1.707-10.24 0-23.893 18.773-42.667 42.667-42.667 17.92 0 33.28 11.093 39.253 27.307 4.267-5.973 11.947-10.24 20.48-10.24 10.24 0 19.627 6.827 23.893 15.36C268.333 15.213 287.96 2.413 311 2.413c33.28 0 59.733 26.453 59.733 59.733V63c2.56-.853 5.973-.853 8.533-.853 23.893 0 42.667 18.773 42.667 42.667 0 0-.853 21.333-17.92 34.133H131.8z" transform="translate(9 1)"/><path style="fill:#51565f" d="M362.666 502.613H140.8c-19.627 0-34.987-15.36-38.4-37.547L68.266 140.8c0-.853 0-2.56.853-3.413.853-.853 1.707-1.707 3.413-1.707H140.8c11.947 0 21.333-9.387 21.333-21.333s-9.387-21.333-21.333-21.333c-2.56 0-4.267-1.707-4.267-4.267 0-2.56 1.707-4.267 4.267-4.267 16.213 0 29.867 13.653 29.867 29.867s-13.653 29.867-29.867 29.867H77.653l33.28 319.147c2.56 18.773 14.507 30.72 29.867 30.72h221.867c15.36 0 27.307-11.947 29.867-30.72l33.28-319.147H192c-2.56 0-4.267-1.707-4.267-4.267 0-2.56 1.707-4.267 4.267-4.267h238.933c.853 0 2.56.853 3.413 1.707.853.853.853 1.707.853 3.413l-34.133 324.267c-3.413 22.186-18.773 37.546-38.4 37.546zm-25.6-34.133c-2.56 0-4.267-1.707-4.267-4.267l25.6-290.133c0-2.56 2.56-4.267 4.267-4.267 2.56 0 4.267 1.707 4.267 4.267l-25.6 290.133c0 2.56-1.707 4.267-4.267 4.267zm-170.666 0c-2.56 0-4.267-1.707-4.267-4.267l-25.6-290.133c0-2.56 1.707-4.267 4.267-4.267 2.56 0 4.267 1.707 4.267 4.267l25.6 290.133c-.001 2.56-1.707 4.267-4.267 4.267zm59.733 0c-2.56 0-4.267-1.707-4.267-4.267l-2.56-90.453c-18.773-11.093-31.573-31.573-31.573-55.467 0-22.187 11.093-40.96 28.16-52.907l-2.56-92.16c0-2.56 1.707-4.267 4.267-4.267 2.56 0 4.267 1.707 4.267 4.267l2.56 87.04c17.067-7.68 38.4-7.68 55.467 0l2.56-87.04c0-2.56 2.56-4.267 4.267-4.267 2.56 0 4.267 1.707 4.267 4.267l-2.56 92.16c17.067 11.947 28.16 30.72 28.16 52.907 0 23.04-12.8 44.373-31.573 55.467l-2.56 90.453c0 2.56-1.707 4.267-4.267 4.267s-4.267-1.707-4.267-4.267l2.56-85.333c-14.507 5.973-33.28 5.973-47.787 0l2.56 85.333c-.854 2.56-2.561 4.267-5.121 4.267zm-29.867-149.334c0 30.72 24.747 55.467 55.467 55.467s55.467-24.747 55.467-55.467-24.747-55.467-55.467-55.467-55.467 24.747-55.467 55.467zM430.933 110.08c-2.56 0-4.267-1.707-4.267-4.267 0-21.333-17.067-38.4-38.4-38.4-2.56 0-5.12 0-7.68.853-.853 0-2.56 0-3.413-.853-.853-.853-1.707-1.707-1.707-3.413v-.853c0-30.72-24.747-55.467-55.467-55.467-21.333 0-40.107 11.947-49.493 30.72-.853 1.707-2.56 2.56-4.267 2.56-1.707 0-3.413-.853-3.413-2.56-3.413-7.68-11.093-12.8-19.627-12.8-6.827 0-12.8 3.413-17.067 8.533-.853.853-2.56 1.707-4.267 1.707s-2.56-.853-3.413-2.56c-5.973-14.507-19.627-24.747-35.84-24.747-21.333 0-38.4 17.067-38.4 38.4 0 2.56 0 5.973 1.707 9.387 0 1.707 0 3.413-1.707 4.267-.853.853-2.56 1.707-4.267.853-2.56-.853-5.12-1.707-8.533-1.707-11.947 0-21.333 9.387-21.333 21.333v1.707c0 1.707-.853 2.56-1.707 3.413s-2.56.853-4.267.853c-2.56-.853-5.12-1.707-6.827-1.707-11.947 0-21.333 9.387-21.333 21.333 0 2.56-1.707 4.267-4.267 4.267-2.56 0-4.267-1.707-4.267-4.267 0-17.92 16.213-32.427 34.133-29.867 1.707-14.507 14.507-25.6 29.867-25.6h4.267v-4.267C135.68 21.333 157.013 0 182.613 0c17.067 0 32.427 9.387 40.96 23.893 5.12-4.267 11.947-6.827 18.773-6.827 9.387 0 17.92 4.267 23.893 11.093C278.187 10.24 297.813 0 319.147 0c34.133 0 61.44 26.453 64 59.733h4.267c25.6 0 46.933 21.333 46.933 46.933.853 1.707-.854 3.414-3.414 3.414zm-68.267 0c-2.56 0-4.267-1.707-4.267-4.267 0-11.947 9.387-21.333 21.333-21.333 2.56 0 4.267 1.707 4.267 4.267 0 2.56-1.707 4.267-4.267 4.267-6.827 0-12.8 5.973-12.8 12.8.001 2.559-1.706 4.266-4.266 4.266zm-68.266 0c-11.947 0-21.333-9.387-21.333-21.333 0-2.56 1.707-4.267 4.267-4.267s4.267 1.707 4.267 4.267c0 6.827 5.973 12.8 12.8 12.8 2.56 0 4.267 1.707 4.267 4.267s-1.708 4.266-4.268 4.266zm-85.334-8.534c-2.56 0-4.267-1.707-4.267-4.267 0-16.213 13.653-29.867 29.867-29.867 2.56 0 4.267 1.707 4.267 4.267 0 2.56-1.707 4.267-4.267 4.267-11.947 0-21.333 9.387-21.333 21.333 0 2.561-1.707 4.267-4.267 4.267zM337.92 85.333c-.853 0-2.56 0-3.413-.853-1.707-1.707-1.707-4.267 0-5.973 8.533-8.533 8.533-22.187 0-29.867-8.533-8.533-22.187-8.533-29.867 0-1.707 1.707-4.267 1.707-5.973 0-1.707-1.707-1.707-4.267 0-5.973 11.947-11.947 30.72-11.947 42.667 0s11.947 30.72 0 41.813c-.854.853-2.561.853-3.414.853zM174.933 58.88c-2.56 0-4.267-1.707-4.267-4.267 0-11.947 9.387-21.333 21.333-21.333 2.56 0 4.267 1.707 4.267 4.267s-1.707 4.267-4.267 4.267c-6.827 0-12.8 5.973-12.8 12.8.001 2.559-1.706 4.266-4.266 4.266z"/></svg>