<svg aria-hidden="true" style="width:0;height:0;position:absolute;overflow:hidden" xmlns="http://www.w3.org/2000/svg"><defs><symbol id="icon-arrow-left" viewBox="0 0 32 32"><path stroke-linejoin="round" stroke-linecap="round" stroke-width="2.667" d="M6.666 16h18.667M16 25.334l9.333-9.333L16 6.668"/></symbol><symbol id="icon-arrow-right" viewBox="0 0 32 32"><path stroke-linejoin="round" stroke-linecap="round" stroke-width="2.667" d="M6.666 16h18.667M16 25.333 25.333 16 16 6.667"/></symbol><symbol id="icon-close" viewBox="0 0 32 32"><path d="M6.276 4.391 4.391 6.276 14.115 16l-9.724 9.724 1.885 1.885L16 17.885l9.724 9.724 1.885-1.885L17.885 16l9.724-9.724-1.885-1.885L16 14.115 6.276 4.391z"/></symbol><symbol id="icon-film" viewBox="0 0 32 32"><path fill="none" stroke="#fff" style="stroke:var(--color1,#fff)" stroke-linejoin="round" stroke-linecap="round" stroke-width="2.17" d="M26.427 2.667H5.574a2.907 2.907 0 0 0-2.907 2.907v20.853a2.907 2.907 0 0 0 2.907 2.907h20.853a2.907 2.907 0 0 0 2.907-2.907V5.574a2.907 2.907 0 0 0-2.907-2.907zM9.333 2.667v26.667M22.667 2.667v26.667M2.667 16h26.667M2.667 9.333h6.667M2.667 22.667h6.667M22.667 22.667h6.667M22.667 9.333h6.667"/></symbol><symbol id="icon-search" viewBox="0 0 32 32"><path fill="none" stroke="#000" style="stroke:var(--color1,#000)" stroke-linejoin="round" stroke-linecap="round" stroke-width="2.667" d="M14.667 25.333c5.891 0 10.667-4.776 10.667-10.667S20.558 3.999 14.667 3.999 4 8.775 4 14.666s4.776 10.667 10.667 10.667zM28 28.001l-5.8-5.8"/></symbol><symbol id="icon-heart" viewBox="0 0 32 32"><path fill="#b92f2c" style="fill:var(--color2,#b92f2c)" d="m16 30.583-2.24-2.24C5.44 20.983 0 16.023 0 9.943c0-4.96 3.84-8.8 8.8-8.8 2.72 0 5.44 1.28 7.2 3.36 1.76-2.08 4.48-3.36 7.2-3.36 4.96 0 8.8 3.84 8.8 8.8 0 6.08-5.44 11.04-13.76 18.4L16 30.583z"/></symbol><symbol id="icon-popcorn" viewBox="0 0 32 32"><path fill="#ff7474" style="fill:var(--color1,#ff7474)" d="m18.418 8.91-.38 8.149c-.598-.38-1.25-.543-2.01-.543s-1.413.217-2.01.543l-.217-8.095V8.91h4.618zm9.018 0-2.173 20.645c-.163 1.25-.978 2.173-2.173 2.173h-1.847L23.416 8.91h4.02zm-18.689.054 2.065 22.764H8.965c-1.195 0-2.01-.924-2.173-2.173L4.619 8.91h4.129v.054zm5.487 14.724c.543.272 1.141.435 1.793.435s1.25-.163 1.793-.435l-.326 8.041h-3.042l-.217-8.041z"/><path fill="#ecf4f7" style="fill:var(--color2,#ecf4f7)" d="M17.82 23.688c1.195-.652 2.01-1.956 2.01-3.368 0-1.358-.706-2.553-1.793-3.26l.38-8.095v-.054h4.998l-2.173 22.818h-3.694l.272-8.041zm-3.586 0 .272 8.041h-3.694L8.748 8.965v-.054h5.053v.054l.217 8.095c-1.087.652-1.793 1.847-1.793 3.26 0 1.467.815 2.716 2.01 3.368z"/><path fill="#f2edda" style="fill:var(--color3,#f2edda)" d="M16.027 16.516c2.119 0 3.803 1.684 3.803 3.803s-1.684 3.803-3.803 3.803-3.803-1.684-3.803-3.803 1.684-3.803 3.803-3.803zM8.964 8.91H6.085v-.054c-1.413-.598-1.467-2.119-1.467-2.119a1.6 1.6 0 0 1 1.63-1.63c.217 0 .38.054.543.109v-.109a1.6 1.6 0 0 1 1.63-1.63c.217 0 .435.054.652.109-.054-.217-.109-.435-.109-.652A2.69 2.69 0 0 1 11.68.218a2.65 2.65 0 0 1 2.499 1.739c.272-.38.761-.652 1.304-.652.652 0 1.25.435 1.521.978.652-1.25 1.902-2.065 3.369-2.065a3.78 3.78 0 0 1 3.803 3.803v.054c.163-.054.38-.054.543-.054a2.69 2.69 0 0 1 2.716 2.716s-.054 1.358-1.141 2.173H8.963z"/><path fill="#51565f" style="fill:var(--color4,#51565f)" d="M23.09 32H8.964c-1.25 0-2.228-.978-2.445-2.39L4.346 8.965c0-.054 0-.163.054-.217s.109-.109.217-.109h4.346c.761 0 1.358-.598 1.358-1.358s-.598-1.358-1.358-1.358c-.163 0-.272-.109-.272-.272s.109-.272.272-.272c1.032 0 1.902.869 1.902 1.902s-.869 1.902-1.902 1.902h-4.02l2.119 20.319c.163 1.195.924 1.956 1.902 1.956H23.09c.978 0 1.739-.761 1.902-1.956l2.119-20.319H12.225c-.163 0-.272-.109-.272-.272s.109-.272.272-.272h15.212c.054 0 .163.054.217.109s.054.109.054.217L25.535 29.61C25.318 31.023 24.34 32 23.09 32zm-1.63-2.173c-.163 0-.272-.109-.272-.272l1.63-18.472c0-.163.163-.272.272-.272.163 0 .272.109.272.272l-1.63 18.472c0 .163-.109.272-.272.272zm-10.866 0c-.163 0-.272-.109-.272-.272l-1.63-18.472c0-.163.109-.272.272-.272s.272.109.272.272l1.63 18.472c0 .163-.109.272-.272.272zm3.803 0c-.163 0-.272-.109-.272-.272l-.163-5.759a4.086 4.086 0 0 1-2.01-3.531c0-1.413.706-2.608 1.793-3.368l-.163-5.868c0-.163.109-.272.272-.272.163 0 .272.109.272.272l.163 5.542a4.433 4.433 0 0 1 3.531 0l.163-5.542c0-.163.163-.272.272-.272.163 0 .272.109.272.272l-.163 5.868c1.087.761 1.793 1.956 1.793 3.368a4.154 4.154 0 0 1-2.01 3.531l-.163 5.759c0 .163-.109.272-.272.272s-.272-.109-.272-.272l.163-5.433c-.924.38-2.119.38-3.042 0l.163 5.433c-.054.163-.163.272-.326.272zm-1.901-9.508c0 1.956 1.576 3.531 3.531 3.531s3.531-1.576 3.531-3.531-1.576-3.531-3.531-3.531-3.531 1.576-3.531 3.531zm14.94-13.311c-.163 0-.272-.109-.272-.272a2.435 2.435 0 0 0-2.445-2.445c-.163 0-.326 0-.489.054-.054 0-.163 0-.217-.054s-.109-.109-.109-.217V4.02A3.524 3.524 0 0 0 20.373.489a3.503 3.503 0 0 0-3.151 1.956c-.054.109-.163.163-.272.163s-.217-.054-.217-.163a1.372 1.372 0 0 0-1.25-.815c-.435 0-.815.217-1.087.543-.054.054-.163.109-.272.109s-.163-.054-.217-.163c-.38-.924-1.25-1.576-2.282-1.576A2.435 2.435 0 0 0 9.18 2.988c0 .163 0 .38.109.598 0 .109 0 .217-.109.272-.054.054-.163.109-.272.054-.163-.054-.326-.109-.543-.109-.761 0-1.358.598-1.358 1.358v.109c0 .109-.054.163-.109.217s-.163.054-.272.054c-.163-.054-.326-.109-.435-.109-.761 0-1.358.598-1.358 1.358 0 .163-.109.272-.272.272s-.272-.109-.272-.272c0-1.141 1.032-2.065 2.173-1.902.109-.924.924-1.63 1.902-1.63h.272v-.272c0-1.63 1.358-2.988 2.988-2.988 1.087 0 2.065.598 2.608 1.521a1.898 1.898 0 0 1 1.195-.435c.598 0 1.141.272 1.521.706a4.01 4.01 0 0 1 3.369-1.793c2.173 0 3.912 1.684 4.075 3.803h.272c1.63 0 2.988 1.358 2.988 2.988.054.109-.054.217-.217.217zm-4.346 0c-.163 0-.272-.109-.272-.272 0-.761.598-1.358 1.358-1.358.163 0 .272.109.272.272s-.109.272-.272.272a.835.835 0 0 0-.815.815c0 .163-.109.272-.272.272zm-4.346 0a1.345 1.345 0 0 1-1.358-1.358c0-.163.109-.272.272-.272s.272.109.272.272c0 .435.38.815.815.815.163 0 .272.109.272.272s-.109.272-.272.272zm-5.433-.543c-.163 0-.272-.109-.272-.272 0-1.032.869-1.902 1.902-1.902.163 0 .272.109.272.272s-.109.272-.272.272c-.761 0-1.358.598-1.358 1.358 0 .163-.109.272-.272.272zm8.203-1.032c-.054 0-.163 0-.217-.054a.262.262 0 0 1 0-.38c.543-.543.543-1.413 0-1.902-.543-.543-1.413-.543-1.902 0-.109.109-.272.109-.38 0s-.109-.272 0-.38c.761-.761 1.956-.761 2.716 0s.761 1.956 0 2.662c-.054.054-.163.054-.217.054zM11.137 3.749c-.163 0-.272-.109-.272-.272 0-.761.598-1.358 1.358-1.358.163 0 .272.109.272.272s-.109.272-.272.272a.835.835 0 0 0-.815.815c0 .163-.109.272-.272.272z"/></symbol><symbol id="icon-linkedin" viewBox="0 0 32 32"><path d="M27.263 27.269h-4.739v-7.425c0-1.771-.036-4.049-2.469-4.049-2.471 0-2.848 1.927-2.848 3.919v7.556h-4.739V12.001h4.552v2.081h.061c.636-1.2 2.183-2.467 4.493-2.467 4.801 0 5.689 3.16 5.689 7.273v8.381zM7.116 9.911a2.75 2.75 0 0 1-2.751-2.753 2.752 2.752 0 1 1 2.751 2.753zm2.376 17.358H4.74V12h4.752v15.269zM29.633 0H2.361C1.056 0 0 1.032 0 2.305v27.389c0 1.275 1.056 2.305 2.361 2.305h27.268c1.304 0 2.371-1.031 2.371-2.305V2.305C32 1.032 30.933 0 29.629 0h.004z"/></symbol><symbol id="icon-github" viewBox="0 0 32 32"><path d="M16 .396c-8.84 0-16 7.164-16 16 0 7.071 4.584 13.067 10.94 15.18.8.151 1.093-.344 1.093-.769 0-.38-.013-1.387-.02-2.72-4.451.965-5.389-2.147-5.389-2.147-.728-1.847-1.78-2.34-1.78-2.34-1.449-.992.112-.972.112-.972 1.607.112 2.451 1.648 2.451 1.648 1.427 2.447 3.745 1.74 4.66 1.331.144-1.035.556-1.74 1.013-2.14-3.553-.4-7.288-1.776-7.288-7.907 0-1.747.62-3.173 1.647-4.293-.18-.404-.72-2.031.14-4.235 0 0 1.34-.429 4.4 1.64 1.28-.356 2.64-.532 4-.54 1.36.008 2.72.184 4 .54 3.04-2.069 4.38-1.64 4.38-1.64.86 2.204.32 3.831.16 4.235 1.02 1.12 1.64 2.547 1.64 4.293 0 6.147-3.74 7.5-7.3 7.893.56.48 1.08 1.461 1.08 2.96 0 2.141-.02 3.861-.02 4.381 0 .42.28.92 1.1.76C27.42 29.455 32 23.455 32 16.395c0-8.836-7.164-16-16-16z"/></symbol></defs></svg>