<svg aria-hidden="true" style="position: absolute; width: 0; height: 0; overflow: hidden;" version="1.1" xmlns="http://www.w3.org/2000/svg" xmlns:xlink="http://www.w3.org/1999/xlink">
<defs>
<symbol id="icon-arrow-left" viewBox="0 0 32 32">
<path stroke-linejoin="round" stroke-linecap="round" stroke-miterlimit="4" stroke-width="2.6667" d="M6.666 16h18.667"></path>
<path stroke-linejoin="round" stroke-linecap="round" stroke-miterlimit="4" stroke-width="2.6667" d="M16 25.334l9.333-9.333-9.333-9.333"></path>
</symbol>
<symbol id="icon-arrow-right" viewBox="0 0 32 32">
<path stroke-linejoin="round" stroke-linecap="round" stroke-miterlimit="4" stroke-width="2.6667" d="M6.666 16h18.667"></path>
<path stroke-linejoin="round" stroke-linecap="round" stroke-miterlimit="4" stroke-width="2.6667" d="M16 25.333l9.333-9.333-9.333-9.333"></path>
</symbol>
<symbol id="icon-close" viewBox="0 0 32 32">
<path d="M6.276 4.391l-1.885 1.885 9.724 9.724-9.724 9.724 1.885 1.885 9.724-9.724 9.724 9.724 1.885-1.885-9.724-9.724 9.724-9.724-1.885-1.885-9.724 9.724-9.724-9.724z"></path>
</symbol>
<symbol id="icon-film" viewBox="0 0 32 32">
<path fill="none" stroke="#fff" style="stroke: var(--color1, #fff)" stroke-linejoin="round" stroke-linecap="round" stroke-miterlimit="4" stroke-width="2.1695" d="M26.427 2.667h-20.853c-1.605 0-2.907 1.301-2.907 2.907v20.853c0 1.605 1.301 2.907 2.907 2.907h20.853c1.605 0 2.907-1.301 2.907-2.907v-20.853c0-1.605-1.301-2.907-2.907-2.907z"></path>
<path fill="none" stroke="#fff" style="stroke: var(--color1, #fff)" stroke-linejoin="round" stroke-linecap="round" stroke-miterlimit="4" stroke-width="2.1695" d="M9.333 2.667v26.667"></path>
<path fill="none" stroke="#fff" style="stroke: var(--color1, #fff)" stroke-linejoin="round" stroke-linecap="round" stroke-miterlimit="4" stroke-width="2.1695" d="M22.667 2.667v26.667"></path>
<path fill="none" stroke="#fff" style="stroke: var(--color1, #fff)" stroke-linejoin="round" stroke-linecap="round" stroke-miterlimit="4" stroke-width="2.1695" d="M2.667 16h26.667"></path>
<path fill="none" stroke="#fff" style="stroke: var(--color1, #fff)" stroke-linejoin="round" stroke-linecap="round" stroke-miterlimit="4" stroke-width="2.1695" d="M2.667 9.333h6.667"></path>
<path fill="none" stroke="#fff" style="stroke: var(--color1, #fff)" stroke-linejoin="round" stroke-linecap="round" stroke-miterlimit="4" stroke-width="2.1695" d="M2.667 22.667h6.667"></path>
<path fill="none" stroke="#fff" style="stroke: var(--color1, #fff)" stroke-linejoin="round" stroke-linecap="round" stroke-miterlimit="4" stroke-width="2.1695" d="M22.667 22.667h6.667"></path>
<path fill="none" stroke="#fff" style="stroke: var(--color1, #fff)" stroke-linejoin="round" stroke-linecap="round" stroke-miterlimit="4" stroke-width="2.1695" d="M22.667 9.333h6.667"></path>
</symbol>
<symbol id="icon-search" viewBox="0 0 32 32">
<path fill="none" stroke="#000" style="stroke: var(--color1, #000)" stroke-linejoin="round" stroke-linecap="round" stroke-miterlimit="4" stroke-width="2.6667" d="M14.667 25.333c5.891 0 10.667-4.776 10.667-10.667s-4.776-10.667-10.667-10.667c-5.891 0-10.667 4.776-10.667 10.667s4.776 10.667 10.667 10.667z"></path>
<path fill="none" stroke="#000" style="stroke: var(--color1, #000)" stroke-linejoin="round" stroke-linecap="round" stroke-miterlimit="4" stroke-width="2.6667" d="M28 28.001l-5.8-5.8"></path>
</symbol>
<symbol id="icon-heart" viewBox="0 0 32 32">
<path fill="#b92f2c" style="fill: var(--color2, #b92f2c)" d="M16 30.583l-2.24-2.24c-8.32-7.36-13.76-12.32-13.76-18.4 0-4.96 3.84-8.8 8.8-8.8 2.72 0 5.44 1.28 7.2 3.36 1.76-2.080 4.48-3.36 7.2-3.36 4.96 0 8.8 3.84 8.8 8.8 0 6.080-5.44 11.040-13.76 18.4l-2.24 2.24z"></path>
</symbol>
<symbol id="icon-popcorn" viewBox="0 0 32 32">
  <path fill="#ff7474" style="fill: var(--color1, #ff7474)" d="M18.418 8.91v0l-0.38 8.149c-0.598-0.38-1.25-0.543-2.010-0.543s-1.413 0.217-2.010 0.543v0l-0.217-8.095v-0.054h4.618zM27.436 8.91l-2.173 20.645c-0.163 1.25-0.978 2.173-2.173 2.173h-1.847l2.173-22.818h4.020zM8.747 8.964l2.065 22.764h-1.847c-1.195 0-2.010-0.924-2.173-2.173l-2.173-20.645h4.129v0.054zM14.234 23.688c0.543 0.272 1.141 0.435 1.793 0.435s1.25-0.163 1.793-0.435v0l-0.326 8.041h-3.042l-0.217-8.041z"></path>
  <path fill="#ecf4f7" style="fill: var(--color2, #ecf4f7)" d="M17.82 23.688v0c1.195-0.652 2.010-1.956 2.010-3.368 0-1.358-0.706-2.553-1.793-3.26v0l0.38-8.095v-0.054h4.998l-2.173 22.818h-3.694l0.272-8.041zM14.234 23.688l0.272 8.041h-3.694l-2.064-22.764v-0.054h5.053v0.054l0.217 8.095c-1.087 0.652-1.793 1.847-1.793 3.26 0 1.467 0.815 2.716 2.010 3.368v0z"></path>
  <path fill="#f2edda" style="fill: var(--color3, #f2edda)" d="M16.027 16.516c2.119 0 3.803 1.684 3.803 3.803s-1.684 3.803-3.803 3.803-3.803-1.684-3.803-3.803 1.684-3.803 3.803-3.803z"></path>
  <path fill="#f2edda" style="fill: var(--color3, #f2edda)" d="M8.964 8.91h-2.879v-0.054c-1.413-0.598-1.467-2.119-1.467-2.119 0-0.924 0.706-1.63 1.63-1.63 0.217 0 0.38 0.054 0.543 0.109 0-0.054 0-0.054 0-0.109 0-0.924 0.706-1.63 1.63-1.63 0.217 0 0.435 0.054 0.652 0.109-0.054-0.217-0.109-0.435-0.109-0.652 0-1.521 1.195-2.716 2.716-2.716 1.141 0 2.119 0.706 2.499 1.739 0.272-0.38 0.761-0.652 1.304-0.652 0.652 0 1.25 0.435 1.521 0.978 0.652-1.25 1.902-2.065 3.369-2.065 2.119 0 3.803 1.684 3.803 3.803v0.054c0.163-0.054 0.38-0.054 0.543-0.054 1.521 0 2.716 1.195 2.716 2.716 0 0-0.054 1.358-1.141 2.173v0h-17.331z"></path>
  <path fill="#51565f" style="fill: var(--color4, #51565f)" d="M23.090 32h-14.126c-1.25 0-2.228-0.978-2.445-2.39l-2.173-20.645c0-0.054 0-0.163 0.054-0.217s0.109-0.109 0.217-0.109h4.346c0.761 0 1.358-0.598 1.358-1.358s-0.598-1.358-1.358-1.358c-0.163 0-0.272-0.109-0.272-0.272s0.109-0.272 0.272-0.272c1.032 0 1.902 0.869 1.902 1.902s-0.869 1.902-1.902 1.902h-4.020l2.119 20.319c0.163 1.195 0.924 1.956 1.902 1.956h14.126c0.978 0 1.739-0.761 1.902-1.956l2.119-20.319h-14.886c-0.163 0-0.272-0.109-0.272-0.272s0.109-0.272 0.272-0.272h15.212c0.054 0 0.163 0.054 0.217 0.109s0.054 0.109 0.054 0.217l-2.173 20.645c-0.217 1.413-1.195 2.39-2.445 2.39zM21.46 29.827v0c-0.163 0-0.272-0.109-0.272-0.272v0l1.63-18.472c0-0.163 0.163-0.272 0.272-0.272 0.163 0 0.272 0.109 0.272 0.272v0l-1.63 18.472c0 0.163-0.109 0.272-0.272 0.272zM10.594 29.827c-0.163 0-0.272-0.109-0.272-0.272l-1.63-18.472c0-0.163 0.109-0.272 0.272-0.272s0.272 0.109 0.272 0.272l1.63 18.472c-0 0.163-0.109 0.272-0.272 0.272v0zM14.397 29.827c-0.163 0-0.272-0.109-0.272-0.272l-0.163-5.759c-1.195-0.706-2.010-2.010-2.010-3.531 0-1.413 0.706-2.608 1.793-3.368l-0.163-5.868c0-0.163 0.109-0.272 0.272-0.272v0c0.163 0 0.272 0.109 0.272 0.272l0.163 5.542c1.087-0.489 2.445-0.489 3.531 0l0.163-5.542c0-0.163 0.163-0.272 0.272-0.272 0.163 0 0.272 0.109 0.272 0.272v0l-0.163 5.868c1.087 0.761 1.793 1.956 1.793 3.368 0 1.467-0.815 2.825-2.010 3.531l-0.163 5.759c0 0.163-0.109 0.272-0.272 0.272s-0.272-0.109-0.272-0.272v0l0.163-5.433c-0.924 0.38-2.119 0.38-3.042 0l0.163 5.433c-0.054 0.163-0.163 0.272-0.326 0.272v0zM12.496 20.319c0 1.956 1.576 3.531 3.531 3.531s3.531-1.576 3.531-3.531-1.576-3.531-3.531-3.531-3.531 1.576-3.531 3.531zM27.436 7.008c-0.163 0-0.272-0.109-0.272-0.272 0-1.358-1.087-2.445-2.445-2.445-0.163 0-0.326 0-0.489 0.054-0.054 0-0.163 0-0.217-0.054s-0.109-0.109-0.109-0.217v-0.054c0-1.956-1.576-3.531-3.531-3.531-1.358 0-2.553 0.761-3.151 1.956-0.054 0.109-0.163 0.163-0.272 0.163s-0.217-0.054-0.217-0.163c-0.217-0.489-0.706-0.815-1.25-0.815-0.435 0-0.815 0.217-1.087 0.543-0.054 0.054-0.163 0.109-0.272 0.109s-0.163-0.054-0.217-0.163c-0.38-0.924-1.25-1.576-2.282-1.576-1.358 0-2.445 1.087-2.445 2.445 0 0.163 0 0.38 0.109 0.598 0 0.109 0 0.217-0.109 0.272-0.054 0.054-0.163 0.109-0.272 0.054-0.163-0.054-0.326-0.109-0.543-0.109-0.761 0-1.358 0.598-1.358 1.358 0 0 0 0.054 0 0.109 0 0.109-0.054 0.163-0.109 0.217s-0.163 0.054-0.272 0.054c-0.163-0.054-0.326-0.109-0.435-0.109-0.761 0-1.358 0.598-1.358 1.358 0 0.163-0.109 0.272-0.272 0.272s-0.272-0.109-0.272-0.272c0-1.141 1.032-2.065 2.173-1.902 0.109-0.924 0.924-1.63 1.902-1.63 0.109 0 0.217 0 0.272 0 0-0.109 0-0.217 0-0.272 0-1.63 1.358-2.988 2.988-2.988 1.087 0 2.065 0.598 2.608 1.521 0.326-0.272 0.761-0.435 1.195-0.435 0.598 0 1.141 0.272 1.521 0.706 0.761-1.141 2.010-1.793 3.369-1.793 2.173 0 3.912 1.684 4.075 3.803 0.109 0 0.163 0 0.272 0 1.63 0 2.988 1.358 2.988 2.988 0.054 0.109-0.054 0.217-0.217 0.217zM23.090 7.008c-0.163 0-0.272-0.109-0.272-0.272 0-0.761 0.598-1.358 1.358-1.358 0.163 0 0.272 0.109 0.272 0.272s-0.109 0.272-0.272 0.272c-0.435 0-0.815 0.38-0.815 0.815 0 0.163-0.109 0.272-0.272 0.272zM18.744 7.008c-0.761 0-1.358-0.598-1.358-1.358 0-0.163 0.109-0.272 0.272-0.272s0.272 0.109 0.272 0.272c0 0.435 0.38 0.815 0.815 0.815 0.163 0 0.272 0.109 0.272 0.272s-0.109 0.272-0.272 0.272zM13.311 6.465c-0.163 0-0.272-0.109-0.272-0.272 0-1.032 0.869-1.902 1.902-1.902 0.163 0 0.272 0.109 0.272 0.272s-0.109 0.272-0.272 0.272c-0.761 0-1.358 0.598-1.358 1.358 0 0.163-0.109 0.272-0.272 0.272zM21.514 5.433c-0.054 0-0.163 0-0.217-0.054-0.109-0.109-0.109-0.272 0-0.38 0.543-0.543 0.543-1.413 0-1.902-0.543-0.543-1.413-0.543-1.902 0-0.109 0.109-0.272 0.109-0.38 0s-0.109-0.272 0-0.38c0.761-0.761 1.956-0.761 2.716 0s0.761 1.956 0 2.662c-0.054 0.054-0.163 0.054-0.217 0.054zM11.137 3.749c-0.163 0-0.272-0.109-0.272-0.272 0-0.761 0.598-1.358 1.358-1.358 0.163 0 0.272 0.109 0.272 0.272s-0.109 0.272-0.272 0.272c-0.435 0-0.815 0.38-0.815 0.815 0 0.163-0.109 0.272-0.272 0.272z"></path>
</symbol>
<symbol id="icon-linkedin" viewBox="0 0 32 32">
<path d="M27.263 27.269h-4.739v-7.425c0-1.771-0.036-4.049-2.469-4.049-2.471 0-2.848 1.927-2.848 3.919v7.556h-4.739v-15.269h4.552v2.081h0.061c0.636-1.2 2.183-2.467 4.493-2.467 4.801 0 5.689 3.16 5.689 7.273v8.381zM7.116 9.911c-1.525 0-2.751-1.235-2.751-2.753 0-1.517 1.227-2.751 2.751-2.751 1.52 0 2.752 1.233 2.752 2.751 0 1.519-1.233 2.753-2.752 2.753zM9.492 27.269h-4.752v-15.269h4.752v15.269zM29.633 0h-27.272c-1.305 0-2.361 1.032-2.361 2.305v27.389c0 1.275 1.056 2.305 2.361 2.305h27.268c1.304 0 2.371-1.031 2.371-2.305v-27.389c0-1.273-1.067-2.305-2.371-2.305h0.004z"></path>
</symbol>
<symbol id="icon-github" viewBox="0 0 32 32">
<path d="M16 0.396c-8.84 0-16 7.164-16 16 0 7.071 4.584 13.067 10.94 15.18 0.8 0.151 1.093-0.344 1.093-0.769 0-0.38-0.013-1.387-0.020-2.72-4.451 0.965-5.389-2.147-5.389-2.147-0.728-1.847-1.78-2.34-1.78-2.34-1.449-0.992 0.112-0.972 0.112-0.972 1.607 0.112 2.451 1.648 2.451 1.648 1.427 2.447 3.745 1.74 4.66 1.331 0.144-1.035 0.556-1.74 1.013-2.14-3.553-0.4-7.288-1.776-7.288-7.907 0-1.747 0.62-3.173 1.647-4.293-0.18-0.404-0.72-2.031 0.14-4.235 0 0 1.34-0.429 4.4 1.64 1.28-0.356 2.64-0.532 4-0.54 1.36 0.008 2.72 0.184 4 0.54 3.040-2.069 4.38-1.64 4.38-1.64 0.86 2.204 0.32 3.831 0.16 4.235 1.020 1.12 1.64 2.547 1.64 4.293 0 6.147-3.74 7.5-7.3 7.893 0.56 0.48 1.080 1.461 1.080 2.96 0 2.141-0.020 3.861-0.020 4.381 0 0.42 0.28 0.92 1.1 0.76 6.401-2.099 10.981-8.099 10.981-15.159 0-8.836-7.164-16-16-16z"></path>
</symbol>
<symbol id="github" viewBox="0 0 24 24">
  <path d="M12 0c-6.626 0-12 5.373-12 12 0 5.302 3.438 9.8 8.207 11.387.599.111.793-.261.793-.577v-2.234c-3.338.726-4.033-1.416-4.033-1.416-.546-1.387-1.333-1.756-1.333-1.756-1.089-.745.083-.729.083-.729 1.205.084 1.839 1.237 1.839 1.237 1.07 1.834 2.807 1.304 3.492.997.107-.775.418-1.305.762-1.604-2.665-.305-5.467-1.334-5.467-5.931 0-1.311.469-2.381 1.236-3.221-.124-.303-.535-1.524.117-3.176 0 0 1.008-.322 3.301 1.23.957-.266 1.983-.399 3.003-.404 1.02.005 2.047.138 3.006.404 2.291-1.552 3.297-1.23 3.297-1.23.653 1.653.242 2.874.118 3.176.77.84 1.235 1.911 1.235 3.221 0 4.609-2.807 5.624-5.479 5.921.43.372.823 1.102.823 2.222v3.293c0 .319.192.694.801.576 4.765-1.589 8.199-6.086 8.199-11.386 0-6.627-5.373-12-12-12z"/>
</symbol>
<symbol id="linkedin" viewBox="0 0 32 32">
<path d="M27.263 27.269h-4.739v-7.425c0-1.771-0.036-4.049-2.469-4.049-2.471 0-2.848 1.927-2.848 3.919v7.556h-4.739v-15.269h4.552v2.081h0.061c0.636-1.2 2.183-2.467 4.493-2.467 4.801 0 5.689 3.16 5.689 7.273v8.381zM7.116 9.911c-1.525 0-2.751-1.235-2.751-2.753 0-1.517 1.227-2.751 2.751-2.751 1.52 0 2.752 1.233 2.752 2.751 0 1.519-1.233 2.753-2.752 2.753zM9.492 27.269h-4.752v-15.269h4.752v15.269zM29.633 0h-27.272c-1.305 0-2.361 1.032-2.361 2.305v27.389c0 1.275 1.056 2.305 2.361 2.305h27.268c1.304 0 2.371-1.031 2.371-2.305v-27.389c0-1.273-1.067-2.305-2.371-2.305h0.004z"></path>
</symbol>

</defs>
</svg>